<svg width="255" height="260" viewBox="0 0 255 260" fill="none" xmlns="http://www.w3.org/2000/svg">
<g clip-path="url(#clip0_150_2614)">
<path d="M64.7485 50.255C55.0561 30.0768 22.1841 21.66 4.67511 19.6325C3.96551 19.5504 3.62835 20.4541 4.20721 20.8726C19.5002 31.9296 46.9096 55.3749 49.0413 71.8926C51.2165 88.7476 43.64 112.926 39.2659 123.744C39.0926 124.173 38.5589 124.307 38.1957 124.021L29.1248 116.875C28.59 116.454 27.8301 116.969 28.0233 117.622L38.4551 152.863C38.6295 153.452 38.0123 153.963 37.466 153.681L29.4451 149.55C28.8315 149.234 28.1803 149.905 28.5148 150.509L45.675 181.487C45.9327 181.953 45.5961 182.523 45.0643 182.523H35.2269C34.5419 182.523 34.2667 183.407 34.8306 183.796L66.8531 205.877C67.3875 206.245 67.1736 207.08 66.5279 207.146L48.9004 208.95C48.1858 209.023 48.0343 209.998 48.6931 210.285L79.1806 223.544C79.801 223.814 79.7132 224.72 79.0525 224.866L70.3837 226.778C69.8783 226.89 69.6693 227.491 70.0261 227.866C79.0446 237.342 102.507 234.812 113.843 232.191C114.131 232.124 114.337 231.886 114.353 231.591C114.671 225.93 110.719 212.637 92.1488 200.846C68.239 185.664 61.4325 128.255 64.7485 110.805C68.0645 93.3557 77.4888 76.7785 64.7485 50.255Z" fill="#B4EDC4"/>
<path fill-rule="evenodd" clip-rule="evenodd" d="M3.3891 22.0038C1.71384 20.7926 2.61365 17.9885 4.83576 18.2459C13.687 19.2708 26.4163 21.9076 38.1838 26.8503C49.9074 31.7744 60.9379 39.0974 66.0071 49.6507C76.3947 71.2763 72.3258 86.6507 68.6154 100.67C67.6825 104.195 66.7723 107.634 66.1202 111.066C64.5134 119.522 65.3445 138.021 69.5991 156.361C71.7204 165.505 74.6768 174.535 78.5596 182.195C82.4507 189.871 87.2161 196.06 92.8973 199.667C111.777 211.655 116.1 225.378 115.747 231.67C115.695 232.601 115.033 233.349 114.158 233.551C108.404 234.882 99.5837 236.189 91.0281 235.96C82.5691 235.735 73.9365 234 69.0147 228.828C67.8384 227.592 68.6167 225.738 70.083 225.415L76.6505 223.966L48.1362 211.565C46.1598 210.705 46.6143 207.781 48.7583 207.561L64.5001 205.95L34.038 184.945C32.3462 183.779 33.1718 181.128 35.227 181.128H43.8796L27.2934 151.185C26.2902 149.374 28.2437 147.361 30.0846 148.309L36.6525 151.692L26.6846 118.018C26.105 116.06 28.3847 114.515 29.9889 115.779L38.3218 122.343C40.4456 116.952 43.2117 108.696 45.2484 99.7718C47.4048 90.3233 48.7127 80.255 47.6566 72.0713C47.1631 68.2474 45.1804 63.8944 42.1232 59.2779C39.0785 54.6806 35.0371 49.9241 30.5576 45.3068C21.5987 36.0724 10.9898 27.4992 3.3891 22.0038ZM38.1054 152.44L38.1042 152.44C38.1046 152.44 38.105 152.44 38.1054 152.44ZM44.4532 182.163C44.4533 182.163 44.4535 182.163 44.4536 182.164L45.0643 181.826L44.4536 182.164L44.4532 182.163ZM7.2465 21.3718C14.7012 26.9229 24.3063 34.8533 32.5619 43.3629C37.1129 48.0538 41.2793 52.9467 44.4514 57.7365C47.6108 62.5072 49.8537 67.279 50.426 71.714C51.5451 80.3853 50.1524 90.8338 47.9708 100.393C45.7836 109.977 42.7722 118.797 40.5603 124.267C40.0283 125.583 38.4045 125.963 37.3317 125.117L29.9852 119.33L39.7939 152.466C40.3171 154.234 38.4656 155.766 36.8266 154.922L30.8506 151.844L46.8964 180.811C47.6695 182.207 46.6599 183.919 45.0643 183.919H37.4688L67.6458 204.728C69.2489 205.833 68.6073 208.336 66.6701 208.535L51.6941 210.067L79.7375 222.264C81.5988 223.074 81.3353 225.792 79.3533 226.229L72.0344 227.844C76.2984 231.464 83.3792 232.963 91.1027 233.169C99.098 233.383 107.388 232.203 112.974 230.957C112.973 225.583 109.022 213.213 91.4004 202.024C85.1267 198.041 80.0751 191.36 76.0689 183.457C72.0545 175.538 69.0335 166.279 66.8789 156.992C62.5818 138.469 61.6677 119.539 63.3769 110.545C64.0757 106.867 65.0226 103.272 65.9755 99.6536C69.6401 85.7393 73.3952 71.4809 63.4899 50.8594C58.8667 41.2345 48.615 34.2599 37.1023 29.4243C26.7907 25.0932 15.6769 22.5663 7.2465 21.3718Z" fill="black"/>
<path d="M162.794 204.516L110.451 178.349C110.337 178.292 110.203 178.292 110.088 178.349L57.7456 204.516C57.4468 204.665 57.4468 205.092 57.7456 205.242L110.088 231.409C110.203 231.466 110.337 231.466 110.451 231.409L162.794 205.242C163.093 205.092 163.093 204.665 162.794 204.516Z" fill="black"/>
<path fill-rule="evenodd" clip-rule="evenodd" d="M109.408 176.988C109.951 176.717 110.589 176.717 111.131 176.988L163.474 203.156C164.894 203.865 164.894 205.892 163.474 206.602L111.131 232.769C110.589 233.04 109.951 233.04 109.408 232.769L57.0652 206.602C55.6449 205.892 55.6449 203.865 57.0652 203.156L109.408 176.988ZM110.27 179.959L60.4213 204.879L110.27 229.799L160.118 204.879L110.27 179.959Z" fill="black"/>
<path d="M162.932 204.585L110.494 178.37C110.357 178.301 110.27 178.161 110.27 178.008V125.673C110.27 125.371 110.587 125.175 110.857 125.31L163.295 151.525C163.433 151.594 163.519 151.734 163.519 151.888V204.223C163.519 204.524 163.202 204.72 162.932 204.585Z" fill="#B9E1FF"/>
<path fill-rule="evenodd" clip-rule="evenodd" d="M108.749 125.673C108.749 124.241 110.256 123.309 111.537 123.95L163.976 150.165C164.628 150.491 165.041 151.158 165.041 151.888V204.223C165.041 205.655 163.533 206.586 162.252 205.946L109.813 179.731C109.161 179.404 108.749 178.737 108.749 178.008V125.673ZM111.791 127.478V177.318L161.998 202.418V152.577L111.791 127.478ZM111.177 177.011C111.176 177.011 111.175 177.01 111.174 177.01L111.177 177.011Z" fill="black"/>
<path d="M110.046 178.37L57.607 204.585C57.3372 204.72 57.0199 204.524 57.0199 204.223V151.888C57.0199 151.734 57.1068 151.594 57.2443 151.525L109.683 125.31C109.952 125.175 110.27 125.371 110.27 125.673V178.008C110.27 178.161 110.183 178.301 110.046 178.37Z" fill="#B9E1FF"/>
<path fill-rule="evenodd" clip-rule="evenodd" d="M109.002 123.95C110.284 123.309 111.791 124.241 111.791 125.673V178.008C111.791 178.737 111.379 179.404 110.726 179.731L58.2873 205.946C57.0063 206.586 55.4988 205.655 55.4988 204.223V151.888C55.4988 151.158 55.911 150.491 56.5641 150.165L109.002 123.95ZM108.749 127.478L58.5411 152.577V202.418L108.749 177.318V127.478Z" fill="black"/>
<path d="M109.683 231.206L57.2443 204.991C57.1068 204.922 57.0199 204.782 57.0199 204.628V152.294C57.0199 151.992 57.3372 151.796 57.607 151.931L110.046 178.146C110.183 178.215 110.27 178.355 110.27 178.509V230.843C110.27 231.145 109.952 231.341 109.683 231.206Z" fill="#B9E1FF"/>
<path fill-rule="evenodd" clip-rule="evenodd" d="M55.4988 152.294C55.4988 150.861 57.006 149.93 58.2873 150.57L110.726 176.786C111.379 177.112 111.791 177.779 111.791 178.509V230.843C111.791 232.275 110.284 233.207 109.002 232.566L56.5641 206.351C55.911 206.025 55.4988 205.358 55.4988 204.628V152.294ZM58.5411 154.098V203.939L108.749 229.038V179.198L58.5411 154.098ZM57.9275 203.632C57.9264 203.632 57.9254 203.631 57.9243 203.631L57.4255 204.628L57.9247 203.631L57.9275 203.632Z" fill="black"/>
<path d="M110.857 231.206L163.295 204.991C163.433 204.922 163.519 204.782 163.519 204.628V152.294C163.519 151.992 163.202 151.796 162.932 151.931L110.494 178.146C110.357 178.215 110.27 178.355 110.27 178.509V230.843C110.27 231.145 110.587 231.341 110.857 231.206Z" fill="#B9E1FF"/>
<path fill-rule="evenodd" clip-rule="evenodd" d="M161.998 154.098L111.791 179.198V229.038L161.998 203.939V154.098ZM162.252 150.57C163.533 149.93 165.041 150.861 165.041 152.294V204.628C165.041 205.358 164.628 206.025 163.976 206.351L111.537 232.566C110.256 233.207 108.749 232.275 108.749 230.843V178.509C108.749 177.779 109.161 177.112 109.813 176.786L162.252 150.57Z" fill="black"/>
<path d="M162.794 151.275L110.451 125.107C110.337 125.05 110.203 125.05 110.088 125.107L57.7456 151.275C57.4468 151.424 57.4468 151.851 57.7456 152L110.088 178.167C110.203 178.225 110.337 178.225 110.451 178.167L162.794 152C163.093 151.851 163.093 151.424 162.794 151.275Z" fill="#B9E1FF"/>
<path fill-rule="evenodd" clip-rule="evenodd" d="M109.408 123.747C109.951 123.476 110.589 123.476 111.131 123.747L163.474 149.914C164.894 150.624 164.894 152.651 163.474 153.361L111.131 179.528C110.589 179.799 109.951 179.799 109.408 179.528L57.0652 153.361C55.6449 152.651 55.6449 150.624 57.0652 149.914L109.408 123.747ZM110.27 126.717L60.4213 151.637L110.27 176.557L160.118 151.637L110.27 126.717Z" fill="black"/>
<path d="M90.2283 178.582L93.7101 180.605V193.774C93.7101 198.431 90.5861 198.583 87.4139 196.74C84.9339 195.298 82.8589 193.011 81.7618 190.1L84.8568 190.08C85.3099 191.314 85.9595 192.235 87.5333 193.15C89.2028 194.12 90.2283 193.718 90.2283 191.75V190.475C89.4412 191.154 88.2963 191.154 86.7462 190.253C83.3597 188.285 80.8794 183.627 80.8794 179.801C80.8794 175.976 83.3597 174.201 86.7462 176.17C88.2963 177.07 89.4412 178.401 90.2283 179.995V178.582ZM87.3424 186.773C89.0356 187.758 90.2283 187.148 90.2283 185.235C90.2283 183.322 89.0356 181.326 87.3424 180.342C85.6491 179.358 84.4568 179.968 84.4568 181.881C84.4568 183.793 85.6491 185.789 87.3424 186.773Z" fill="black"/>
<path d="M73.7476 168.614C76.872 170.43 79.4476 175.115 79.4476 179.246C79.4476 183.377 76.872 185.068 73.7476 183.252C72.1497 182.323 70.9811 181.007 70.1943 179.496V186.343L66.6169 184.264V164.858L70.1943 166.937V168.24C70.9811 167.644 72.1497 167.686 73.7476 168.614ZM73.0321 178.899C74.6779 179.856 75.8702 179.246 75.8702 177.167C75.8702 175.088 74.6779 173.091 73.0321 172.135C71.3867 171.179 70.1943 171.789 70.1943 173.868C70.1943 175.947 71.3867 177.943 73.0321 178.899Z" fill="black"/>
<path d="M94.079 217.31L89.6496 214.736L87.2544 209.381L84.8592 211.952L80.4298 209.377L85.0397 204.432L80.5844 194.458L85.0139 197.032L87.2544 202.057L89.495 199.637L93.9244 202.211L89.4691 207.006L92.1086 212.906L94.079 217.31Z" fill="black"/>
<path d="M69.5703 185.205L78.6106 190.459V194.469L66.6149 187.411V183.015L69.5703 185.205Z" fill="black"/>
<path d="M79.4323 204.241L76.3094 206.435L75.1589 203.397L79.4323 204.241Z" fill="black"/>
<path d="M84.8569 190.08L68.7483 202.04L60.694 201.551L76.8026 189.408L84.8569 190.08Z" fill="black"/>
<path d="M79.4323 204.241L76.8026 204.353L76.3094 206.435L67.269 201.181V197.171L79.4323 204.241Z" fill="black"/>
<path d="M203.288 216.393C191.974 226.52 178.389 200.481 165.752 192.541C165.403 192.322 165.308 191.859 165.547 191.524L179.068 172.528C179.278 172.233 179.687 172.153 179.999 172.337C195.678 181.616 199.045 185.312 209.67 195.117C212.541 197.975 214.797 206.092 203.288 216.393Z" fill="white"/>
<path fill-rule="evenodd" clip-rule="evenodd" d="M176.993 167.996C177.287 167.498 177.929 167.332 178.427 167.626C194.685 177.207 201.817 183.638 210.981 194.44L210.981 194.44C212.341 196.043 213.572 199.095 212.953 203.075C212.332 207.067 209.868 211.909 203.987 217.173C202.425 218.571 200.796 219.382 199.117 219.66C197.441 219.937 195.794 219.67 194.215 219.04C191.099 217.796 188.136 215.093 185.439 212.055C183.137 209.462 180.948 206.528 178.963 203.869C178.61 203.396 178.263 202.931 177.923 202.479C176.791 200.971 175.74 199.601 174.771 198.468C173.793 197.323 172.947 196.476 172.232 195.974C171.759 195.641 171.645 194.988 171.978 194.515C172.311 194.042 172.964 193.928 173.437 194.261C174.373 194.919 175.357 195.93 176.363 197.108C177.378 198.296 178.464 199.712 179.598 201.221C179.945 201.683 180.296 202.154 180.653 202.631C182.64 205.294 184.768 208.145 187.005 210.665C189.658 213.653 192.351 216.042 194.992 217.095C196.291 217.614 197.548 217.797 198.775 217.594C200 217.391 201.274 216.791 202.59 215.613C208.217 210.576 210.357 206.143 210.884 202.753C211.413 199.353 210.336 196.917 209.384 195.794C200.376 185.176 193.427 178.895 177.364 169.43C176.866 169.136 176.7 168.494 176.993 167.996Z" fill="black"/>
<path d="M210.531 208.431C207.699 215.881 200.729 219.589 195.275 217.516C189.821 215.444 187.074 208.043 189.906 200.593C192.738 193.144 199.708 189.435 205.162 191.508C210.616 193.581 213.363 200.982 210.531 208.431Z" fill="white"/>
<path fill-rule="evenodd" clip-rule="evenodd" d="M204.666 192.813C200.166 191.103 193.868 194.102 191.212 201.089L191.212 201.089C188.555 208.076 191.272 214.502 195.771 216.212C200.271 217.921 206.569 214.923 209.226 207.935C211.882 200.948 209.166 194.523 204.666 192.813L204.666 192.813ZM188.601 200.097C191.609 192.186 199.249 187.768 205.658 190.204C212.067 192.639 214.843 201.016 211.836 208.927L211.836 208.927C208.828 216.839 201.188 221.257 194.779 218.821C188.37 216.386 185.593 208.009 188.601 200.097Z" fill="black"/>
<path fill-rule="evenodd" clip-rule="evenodd" d="M190.287 213.604C192.143 215.117 194.388 216.002 196.808 216.002C203.192 216.002 208.368 209.838 208.368 202.235C208.368 198.985 207.422 195.998 205.841 193.644C208.884 196.124 210.88 200.291 210.88 205.013C210.88 212.617 205.705 218.781 199.32 218.781C195.664 218.781 192.405 216.76 190.287 213.604Z" fill="black" fill-opacity="0.09"/>
<path d="M114.578 151.897L114.582 151.889H177.142L181.334 170.086C183.964 178.646 187.071 188.761 190.532 201.528C193.078 210.92 194.774 220.754 194.572 228.301C194.472 232.057 193.899 235.402 192.603 237.856C191.259 240.401 189.094 242.027 186.043 242.027C181.952 242.027 178.698 240.861 175.461 239.701L175.46 239.701L175.378 239.671C175.107 239.574 174.837 239.477 174.566 239.381C171.019 238.124 167.225 236.922 161.796 236.966C156.841 237.007 152.313 240.21 148.507 244.035C146.629 245.923 144.987 247.899 143.61 249.598C143.416 249.837 143.225 250.075 143.038 250.307L143.034 250.312C141.943 251.665 140.971 252.87 140.244 253.527C139.766 253.959 139.163 254.09 138.632 254.02C136.782 253.778 126.66 252.292 114.17 247.338C106.765 244.4 102.786 238.058 100.996 229.391C99.2174 220.776 99.5455 209.644 100.882 196.689C102.981 176.353 108.892 163.096 113.075 154.821C113.633 153.717 114.126 152.767 114.578 151.897Z" fill="white"/>
<path fill-rule="evenodd" clip-rule="evenodd" d="M115.065 149.32C115.768 149.638 116.078 150.466 115.759 151.168C108.581 166.969 100.804 190.167 99.8701 210.268C99.4032 220.319 100.655 229.45 104.413 236.48C108.133 243.439 114.363 248.45 124.165 250.251L124.174 250.253L139.107 253.206C140.609 250.831 143.167 247.536 146.534 244.475C150.094 241.24 154.634 238.197 159.862 236.837C163.234 235.959 165.969 235.945 168.377 236.433C170.76 236.915 172.75 237.877 174.593 238.821C174.785 238.919 174.976 239.018 175.167 239.116C178.619 240.893 181.839 242.551 187.264 241.863C191.398 241.339 193.685 238.193 194.825 233.912C195.956 229.661 195.816 224.682 195.319 221.368L177.013 150.942C176.819 150.196 177.266 149.433 178.013 149.24C178.759 149.046 179.521 149.493 179.715 150.239L198.058 220.806L198.069 220.877C198.611 224.426 198.793 229.859 197.523 234.629C196.254 239.398 193.393 243.901 187.615 244.633C181.318 245.431 177.424 243.422 173.934 241.622C173.728 241.516 173.524 241.41 173.321 241.306C171.5 240.374 169.802 239.57 167.823 239.169C165.867 238.773 163.563 238.759 160.565 239.539C155.919 240.748 151.77 243.49 148.413 246.541C145.059 249.59 142.57 252.879 141.242 255.062C140.791 255.802 139.918 256.213 139.034 256.038L123.66 252.997C123.657 252.997 123.654 252.996 123.651 252.995C113.038 251.043 106.08 245.52 101.951 237.796C97.8588 230.141 96.6023 220.437 97.0807 210.138C98.0377 189.537 105.968 165.97 113.217 150.013C113.536 149.311 114.363 149.001 115.065 149.32Z" fill="black"/>
<path d="M174.175 179.732C174.175 172.215 168.081 166.121 160.562 166.121C153.044 166.121 146.949 172.215 146.949 179.732V196.134C146.949 203.651 153.044 209.745 160.562 209.745C168.081 209.745 174.175 203.651 174.175 196.134V179.732Z" fill="#E9ACEE"/>
<path fill-rule="evenodd" clip-rule="evenodd" d="M160.562 167.517C153.815 167.517 148.346 172.986 148.346 179.732V196.134C148.346 202.88 153.815 208.349 160.562 208.349C167.309 208.349 172.779 202.88 172.779 196.134V179.732C172.779 172.986 167.309 167.517 160.562 167.517ZM145.553 179.732C145.553 171.444 152.273 164.725 160.562 164.725C168.852 164.725 175.571 171.444 175.571 179.732V196.134C175.571 204.422 168.852 211.141 160.562 211.141C152.273 211.141 145.553 204.422 145.553 196.134V179.732Z" fill="black"/>
<path d="M167.194 183.221H153.93C153.159 183.221 152.534 183.846 152.534 184.617C152.534 185.388 153.159 186.013 153.93 186.013H167.194C167.965 186.013 168.59 185.388 168.59 184.617C168.59 183.846 167.965 183.221 167.194 183.221Z" fill="black"/>
<path d="M167.194 190.201H153.93C153.159 190.201 152.534 190.826 152.534 191.597C152.534 192.368 153.159 192.993 153.93 192.993H167.194C167.965 192.993 168.59 192.368 168.59 191.597C168.59 190.826 167.965 190.201 167.194 190.201Z" fill="black"/>
<path d="M167.194 197.181H153.93C153.159 197.181 152.534 197.806 152.534 198.577C152.534 199.348 153.159 199.973 153.93 199.973H167.194C167.965 199.973 168.59 199.348 168.59 198.577C168.59 197.806 167.965 197.181 167.194 197.181Z" fill="black"/>
<path d="M175.222 234.187C175.222 245.475 182.905 254.625 192.383 254.625C201.861 254.625 209.544 245.475 209.544 234.187C209.544 222.9 201.861 213.749 192.383 213.749C182.905 213.749 175.222 222.9 175.222 234.187Z" fill="#FEFDFF"/>
<path fill-rule="evenodd" clip-rule="evenodd" d="M178.973 246.94C181.728 249.186 185.061 250.5 188.652 250.5C198.13 250.5 205.813 241.349 205.813 230.062C205.813 225.238 204.41 220.805 202.063 217.309C206.58 220.99 209.544 227.177 209.544 234.187C209.544 245.475 201.861 254.625 192.383 254.625C186.956 254.625 182.117 251.624 178.973 246.94Z" fill="black" fill-opacity="0.09"/>
<path fill-rule="evenodd" clip-rule="evenodd" d="M192.383 213.749C182.91 213.749 175.222 222.895 175.222 234.187C175.222 245.48 182.91 254.625 192.383 254.625C201.857 254.625 209.544 245.48 209.544 234.187C209.544 222.895 201.857 213.749 192.383 213.749ZM172.43 234.187C172.43 221.84 180.921 210.957 192.383 210.957C203.845 210.957 212.336 221.84 212.336 234.187C212.336 246.534 203.845 257.417 192.383 257.417C180.921 257.417 172.43 246.534 172.43 234.187Z" fill="black"/>
<path d="M119.375 234.187C119.375 245.475 127.058 254.625 136.535 254.625C146.013 254.625 153.696 245.475 153.696 234.187C153.696 222.9 146.013 213.749 136.535 213.749C127.058 213.749 119.375 222.9 119.375 234.187Z" fill="#FEFDFF"/>
<path fill-rule="evenodd" clip-rule="evenodd" d="M123.125 246.94C125.88 249.186 129.214 250.5 132.805 250.5C142.282 250.5 149.965 241.349 149.965 230.062C149.965 225.238 148.562 220.805 146.215 217.309C150.732 220.99 153.696 227.177 153.696 234.187C153.696 245.475 146.013 254.625 136.535 254.625C131.108 254.625 126.269 251.624 123.125 246.94Z" fill="black" fill-opacity="0.09"/>
<path fill-rule="evenodd" clip-rule="evenodd" d="M136.535 213.749C127.062 213.749 119.375 222.895 119.375 234.187C119.375 245.48 127.062 254.625 136.535 254.625C146.009 254.625 153.696 245.48 153.696 234.187C153.696 222.895 146.009 213.749 136.535 213.749ZM116.582 234.187C116.582 221.84 125.074 210.957 136.535 210.957C147.997 210.957 156.488 221.84 156.488 234.187C156.488 246.534 147.997 257.417 136.535 257.417C125.074 257.417 116.582 246.534 116.582 234.187Z" fill="black"/>
<path d="M147.73 220.613C135.423 229.357 117.824 196.899 113.158 184.979C112.996 184.565 113.27 184.126 113.71 184.062L139.093 180.367C139.411 180.321 139.716 180.497 139.858 180.785C142.185 185.49 151.769 194.455 155.366 197.726C155.841 198.159 156.987 200.131 157.065 200.77C157.53 204.596 157.431 213.721 147.73 220.613Z" fill="white"/>
<path fill-rule="evenodd" clip-rule="evenodd" d="M139.109 178.996C139.823 178.705 140.638 179.049 140.928 179.764C141.315 180.717 142.148 182.022 143.317 183.555C144.468 185.065 145.883 186.714 147.361 188.341C150.318 191.595 153.479 194.704 155.189 196.352C155.566 196.715 156.052 197.443 156.408 198.032C156.603 198.354 156.793 198.694 156.948 199.005C157.085 199.281 157.255 199.651 157.327 199.993L157.328 199.993C158.195 204.07 159.031 214.297 148.539 221.751C144.776 224.425 140.646 223.753 136.835 221.466C133.067 219.205 129.361 215.25 126.012 210.789C119.296 201.843 113.664 190.378 111.547 184.672C111.279 183.949 111.647 183.146 112.37 182.878C113.093 182.61 113.897 182.978 114.165 183.701C116.2 189.185 121.709 200.407 128.245 209.113C131.521 213.477 134.968 217.09 138.271 219.072C141.53 221.028 144.389 221.275 146.922 219.475L147.73 220.613L146.922 219.475C156.09 212.961 155.361 204.168 154.596 200.574L155.962 200.284L154.596 200.575C154.598 200.585 154.598 200.582 154.592 200.567C154.578 200.532 154.538 200.43 154.448 200.249C154.336 200.022 154.184 199.751 154.018 199.475C153.851 199.199 153.678 198.934 153.526 198.719C153.45 198.611 153.384 198.523 153.331 198.456C153.283 198.397 153.258 198.369 153.252 198.363C153.251 198.362 153.251 198.362 153.252 198.363C151.523 196.697 148.311 193.539 145.295 190.219C143.787 188.56 142.315 186.846 141.096 185.248C139.896 183.674 138.874 182.127 138.341 180.814C138.051 180.1 138.395 179.286 139.109 178.996Z" fill="black"/>
<path d="M155.82 213.514C152.171 220.599 144.829 223.502 139.642 220.831C134.454 218.16 132.555 210.498 136.205 203.413C139.854 196.328 147.196 193.424 152.383 196.095C157.57 198.767 159.469 206.428 155.82 213.514Z" fill="white"/>
<path fill-rule="evenodd" clip-rule="evenodd" d="M151.744 197.337C147.464 195.133 140.869 197.407 137.446 204.052L137.446 204.052C134.023 210.697 136.001 217.386 140.281 219.59L140.281 219.59C144.56 221.794 151.156 219.52 154.579 212.875C158.002 206.229 156.023 199.54 151.744 197.337ZM134.963 202.774C138.839 195.249 146.927 191.716 153.022 194.854L153.022 194.854C159.117 197.993 160.937 206.628 157.061 214.153L157.061 214.153C153.185 221.677 145.098 225.211 139.003 222.072C132.907 218.933 131.087 210.298 134.963 202.774Z" fill="black"/>
<path d="M155.82 213.514C152.171 220.599 144.829 223.502 139.642 220.831C134.454 218.16 132.555 210.498 136.205 203.413C139.854 196.328 147.196 193.424 152.383 196.095C157.57 198.767 159.469 206.428 155.82 213.514Z" fill="white"/>
<path fill-rule="evenodd" clip-rule="evenodd" d="M151.744 197.337C147.464 195.133 140.869 197.407 137.446 204.052L137.446 204.052C134.023 210.697 136.001 217.386 140.281 219.59L140.281 219.59C144.56 221.794 151.156 219.52 154.579 212.875C158.002 206.229 156.023 199.54 151.744 197.337ZM134.963 202.774C138.839 195.249 146.927 191.716 153.022 194.854L153.022 194.854C159.117 197.993 160.937 206.628 157.061 214.153L157.061 214.153C153.185 221.677 145.098 225.211 139.003 222.072C132.907 218.933 131.087 210.298 134.963 202.774Z" fill="black"/>
<path fill-rule="evenodd" clip-rule="evenodd" d="M136.478 217.506C138.334 219.019 140.58 219.904 142.999 219.904C149.383 219.904 154.559 213.74 154.559 206.136C154.559 202.887 153.614 199.9 152.033 197.545C155.075 200.025 157.072 204.192 157.072 208.915C157.072 216.519 151.896 222.682 145.512 222.682C141.856 222.682 138.596 220.661 136.478 217.506Z" fill="black" fill-opacity="0.09"/>
<path d="M87.6294 126.243C71.48 116.347 57.1575 79.931 66.2013 62.1683C74.9129 45.0578 107.09 55.1793 124.047 62.1683C140.758 69.0557 135.616 74.969 133.474 84.9834C131.331 94.9974 125.73 132.96 120.498 146.199C113.958 162.747 98.4335 150.304 96.1074 139.872C93.7315 129.214 92.1245 128.998 87.6294 126.243Z" fill="#B9E1FF"/>
<path fill-rule="evenodd" clip-rule="evenodd" d="M92.1632 51.9543C103.579 53.2379 115.982 57.5647 124.494 61.0731C132.915 64.5439 136.361 67.9706 136.996 72.2277C137.3 74.2682 136.927 76.3535 136.397 78.453C136.189 79.2773 135.962 80.0887 135.731 80.9131C135.35 82.2766 134.959 83.6764 134.626 85.2318C134.057 87.8922 133.246 92.5139 132.26 98.1352C131.394 103.07 130.394 108.776 129.303 114.601C126.986 126.968 124.26 139.889 121.593 146.636C119.884 150.959 117.505 153.594 114.703 154.753C111.901 155.913 108.92 155.494 106.223 154.225C103.53 152.959 101.031 150.812 99.0586 148.327C97.0868 145.842 95.5856 142.948 94.9577 140.13C93.7702 134.804 92.8141 132.306 91.7122 130.793C90.7914 129.529 89.753 128.905 88.0179 127.861C87.7072 127.674 87.3742 127.474 87.0158 127.254C78.6082 122.102 70.8667 110.227 66.3584 97.5541C64.0934 91.1874 62.6169 84.5475 62.2864 78.3452C61.9565 72.1544 62.7646 66.3189 65.1524 61.6291C69.8813 52.341 80.8645 50.684 92.1632 51.9543ZM91.901 54.3072C80.6941 53.0473 71.2332 54.8851 67.2505 62.7071C65.1161 66.8992 64.3231 72.2765 64.6396 78.2185C64.9559 84.1496 66.3737 90.5624 68.5776 96.7574C73.0067 109.207 80.5011 120.489 88.243 125.233C88.5568 125.425 88.864 125.609 89.1634 125.788C90.8989 126.824 92.3901 127.714 93.6142 129.395C95.0334 131.344 96.069 134.282 97.2572 139.613C97.7919 142.012 99.1037 144.585 100.901 146.851C102.699 149.115 104.925 151.001 107.222 152.081C109.514 153.159 111.786 153.4 113.806 152.564C115.828 151.728 117.842 149.713 119.403 145.762C121.969 139.27 124.659 126.591 126.987 114.163C128.061 108.427 129.058 102.747 129.925 97.8064C130.922 92.1238 131.747 87.4193 132.322 84.7345C132.665 83.1299 133.1 81.5702 133.497 80.1435C133.722 79.3384 133.935 78.5758 134.112 77.8716C134.627 75.8307 134.896 74.1293 134.665 72.5787C134.229 69.6538 131.889 66.6801 123.6 63.2634C115.155 59.7826 102.991 55.5542 91.901 54.3072Z" fill="black"/>
<path d="M80.7698 70.7776C92.6961 59.7546 124.17 74.7044 130.26 80.5187C131.039 90.5355 118.085 127.408 114.928 135.382L98.3378 118.991C91.2678 114.04 68.8435 81.8005 80.7698 70.7776Z" fill="black"/>
<path d="M225.166 126.243C241.315 116.347 255.638 79.931 246.594 62.1683C237.882 45.0578 205.705 55.1793 188.748 62.1683C172.037 69.0557 177.179 74.969 179.322 84.9834C181.464 94.9974 187.065 132.96 192.297 146.199C198.838 162.747 214.362 150.304 216.688 139.872C219.064 129.214 220.671 128.998 225.166 126.243Z" fill="#B9E1FF"/>
<path fill-rule="evenodd" clip-rule="evenodd" d="M220.632 51.9543C209.216 53.2379 196.813 57.5647 188.301 61.0731C179.88 64.5439 176.435 67.9706 175.8 72.2277C175.495 74.2682 175.869 76.3535 176.399 78.453C176.607 79.2773 176.834 80.0887 177.064 80.9131C177.446 82.2766 177.837 83.6764 178.17 85.2318C178.739 87.8922 179.55 92.5139 180.536 98.1352C181.401 103.07 182.402 108.776 183.493 114.601C185.809 126.968 188.536 139.889 191.202 146.636C192.911 150.959 195.29 153.594 198.092 154.753C200.895 155.913 203.875 155.494 206.573 154.225C209.265 152.959 211.765 150.812 213.737 148.327C215.709 145.842 217.21 142.948 217.838 140.13C219.025 134.804 219.981 132.306 221.083 130.793C222.004 129.529 223.042 128.905 224.778 127.861C225.088 127.674 225.421 127.474 225.78 127.254C234.187 122.102 241.929 110.227 246.437 97.5541C248.702 91.1874 250.179 84.5475 250.509 78.3452C250.839 72.1544 250.031 66.3189 247.643 61.6291C242.914 52.341 231.931 50.684 220.632 51.9543ZM220.894 54.3072C232.101 53.0473 241.563 54.8851 245.545 62.7071C247.679 66.8992 248.472 72.2765 248.156 78.2185C247.84 84.1496 246.422 90.5624 244.218 96.7574C239.789 109.207 232.294 120.489 224.552 125.233C224.239 125.425 223.931 125.609 223.632 125.788C221.897 126.824 220.406 127.714 219.182 129.395C217.762 131.344 216.727 134.282 215.538 139.613C215.004 142.012 213.692 144.585 211.894 146.851C210.097 149.115 207.87 151.001 205.574 152.081C203.282 153.159 201.009 153.4 198.989 152.564C196.968 151.728 194.954 149.713 193.393 145.762C190.827 139.27 188.137 126.591 185.809 114.163C184.735 108.427 183.738 102.747 182.871 97.8064C181.874 92.1238 181.048 87.4193 180.474 84.7345C180.13 83.1299 179.696 81.5702 179.298 80.1435C179.074 79.3384 178.861 78.5758 178.683 77.8716C178.168 75.8307 177.899 74.1293 178.13 72.5787C178.567 69.6538 180.906 66.6801 189.196 63.2634C197.641 59.7826 209.804 55.5542 220.894 54.3072Z" fill="black"/>
<path d="M232.026 70.7776C220.099 59.7546 188.625 74.7044 182.535 80.5187C181.756 90.5355 194.71 127.408 197.868 135.382L214.458 118.991C221.528 114.04 243.952 81.8005 232.026 70.7776Z" fill="black"/>
<path d="M212.185 120.408C212.185 148.057 196.89 161.283 157.905 161.283C118.92 161.283 101.573 148.057 101.573 120.408C101.573 92.7586 125.449 61.1572 157.905 61.1572C190.361 61.1572 212.185 92.7586 212.185 120.408Z" fill="#B9E1FF"/>
<path fill-rule="evenodd" clip-rule="evenodd" d="M212.076 116.916C210.614 141.836 194.961 153.783 157.91 153.783C120.844 153.783 103.339 141.827 101.705 116.886C101.621 118.065 101.578 119.24 101.578 120.408C101.578 148.057 118.926 161.283 157.91 161.283C196.895 161.283 212.19 148.057 212.19 120.408C212.19 119.25 212.152 118.085 212.076 116.916Z" fill="#8DC0E7"/>
<path fill-rule="evenodd" clip-rule="evenodd" d="M198.528 149.731C206.616 143.441 210.325 133.877 210.325 120.408C210.325 107.047 205.039 92.6577 195.794 81.6218C186.568 70.6076 173.491 63.032 157.91 63.032C142.315 63.032 128.713 70.6212 118.968 81.6585C109.209 92.7132 103.444 107.094 103.444 120.408C103.444 133.802 107.617 143.379 116.225 149.7C124.959 156.113 138.56 159.408 157.91 159.408C177.267 159.408 190.325 156.109 198.528 149.731ZM157.91 161.283C196.895 161.283 212.19 148.057 212.19 120.408C212.19 92.7586 190.366 61.1572 157.91 61.1572C125.454 61.1572 101.578 92.7586 101.578 120.408C101.578 148.057 118.926 161.283 157.91 161.283Z" fill="black"/>
<path fill-rule="evenodd" clip-rule="evenodd" d="M180.135 114.383C182.636 114.649 185.494 117.424 185.004 122.536C184.942 123.187 185.417 123.766 186.064 123.828C186.712 123.89 187.288 123.414 187.35 122.763C187.932 116.683 184.47 112.463 180.383 112.029C178.34 111.812 176.275 112.586 174.757 114.416C173.259 116.223 172.359 118.972 172.359 122.65C172.359 123.303 172.886 123.834 173.537 123.834C174.188 123.834 174.716 123.303 174.716 122.65C174.716 119.332 175.529 117.184 176.568 115.931C177.588 114.701 178.885 114.251 180.135 114.383Z" fill="black"/>
<path d="M189.605 133.196C187.712 133.196 186.178 131.654 186.178 129.753C186.178 127.851 187.712 126.309 189.605 126.309C191.499 126.309 193.033 127.851 193.033 129.753C193.033 131.654 191.499 133.196 189.605 133.196Z" fill="#E66FC5"/>
<path fill-rule="evenodd" clip-rule="evenodd" d="M133.731 114.383C131.23 114.649 128.373 117.424 128.862 122.536C128.924 123.187 128.45 123.766 127.802 123.828C127.154 123.89 126.579 123.414 126.516 122.763C125.934 116.683 129.397 112.463 133.484 112.029C135.527 111.812 137.592 112.586 139.109 114.416C140.608 116.223 141.508 118.972 141.508 122.65C141.508 123.303 140.98 123.834 140.329 123.834C139.679 123.834 139.151 123.303 139.151 122.65C139.151 119.332 138.337 117.184 137.298 115.931C136.278 114.701 134.982 114.251 133.731 114.383Z" fill="black"/>
<path d="M124.261 133.196C126.154 133.196 127.689 131.655 127.689 129.753C127.689 127.851 126.154 126.309 124.261 126.309C122.368 126.309 120.833 127.851 120.833 129.753C120.833 131.655 122.368 133.196 124.261 133.196Z" fill="#E66FC5"/>
<path fill-rule="evenodd" clip-rule="evenodd" d="M143.628 141.954C142.901 140.327 142.473 138.573 142.472 136.769C142.472 135.942 142.816 135.132 143.416 134.548C144.017 133.962 144.848 133.627 145.697 133.627H168.271C169.12 133.627 169.95 133.962 170.551 134.548C171.152 135.132 171.496 135.942 171.496 136.769C171.488 139.477 170.546 142.064 169.027 144.294C167.5 146.52 165.367 148.42 162.755 149.629C161.016 150.43 159.054 150.913 156.984 150.912C153.871 150.912 151.034 149.83 148.765 148.203C146.488 146.568 144.723 144.392 143.628 141.954Z" fill="black"/>
<mask id="mask0_150_2614" style="mask-type:luminance" maskUnits="userSpaceOnUse" x="142" y="133" width="30" height="18">
<path fill-rule="evenodd" clip-rule="evenodd" d="M143.628 141.954C142.901 140.327 142.473 138.573 142.472 136.769C142.472 135.942 142.816 135.132 143.416 134.548C144.017 133.962 144.848 133.627 145.697 133.627H168.271C169.12 133.627 169.95 133.962 170.551 134.548C171.152 135.132 171.496 135.942 171.496 136.769C171.488 139.477 170.546 142.064 169.027 144.294C167.5 146.52 165.367 148.42 162.755 149.629C161.016 150.43 159.054 150.913 156.984 150.912C153.871 150.912 151.034 149.83 148.765 148.203C146.488 146.568 144.723 144.392 143.628 141.954Z" fill="white"/>
</mask>
<g mask="url(#mask0_150_2614)">
<path fill-rule="evenodd" clip-rule="evenodd" d="M151.894 144.722C151.595 145.286 151.419 145.894 151.419 146.519C151.419 146.806 151.56 147.087 151.806 147.289C151.825 147.304 151.845 147.323 151.869 147.345C152.175 147.629 153.081 148.471 157.383 148.471C161.685 148.471 162.591 147.629 162.897 147.345C162.921 147.323 162.941 147.304 162.959 147.289C163.206 147.087 163.348 146.806 163.348 146.519C163.345 145.58 162.957 144.684 162.333 143.911C161.706 143.139 160.829 142.48 159.755 142.061C159.041 141.783 158.234 141.616 157.383 141.616C156.104 141.616 154.938 141.991 154.005 142.555C153.069 143.122 152.344 143.877 151.894 144.722Z" fill="#E66FC5"/>
</g>
<path d="M204.817 145.034C178.936 156.915 158.54 142.38 151.256 134.057L161.432 109.843C165.396 109.843 169.46 108.014 175.037 118.13C182.75 132.12 191.888 129.138 199.032 126.093C206.102 123.08 209.15 116.005 213.815 110.381C218.1 105.216 229.562 101.88 227.312 118.13C225.182 133.521 210.887 142.38 204.817 145.034Z" fill="#B9E1FF"/>
<path fill-rule="evenodd" clip-rule="evenodd" d="M172.454 113.953C172.739 114.541 172.495 115.249 171.91 115.535C170.673 116.14 168.494 117.47 166.527 119.027C165.546 119.803 164.645 120.615 163.948 121.398C163.233 122.201 162.817 122.883 162.675 123.397C162.501 124.027 161.851 124.396 161.224 124.221C160.597 124.046 160.23 123.393 160.404 122.763C160.69 121.727 161.391 120.72 162.191 119.82C163.009 118.9 164.023 117.995 165.069 117.167C167.154 115.517 169.475 114.093 170.879 113.406C171.465 113.12 172.17 113.365 172.454 113.953Z" fill="black"/>
<path fill-rule="evenodd" clip-rule="evenodd" d="M177.382 120.195C177.667 120.783 177.423 121.491 176.838 121.777C175.589 122.387 173.627 123.559 171.885 124.944C171.016 125.636 170.226 126.362 169.613 127.078C168.99 127.806 168.608 128.456 168.46 128.993C168.285 129.623 167.636 129.992 167.009 129.817C166.382 129.642 166.014 128.989 166.189 128.359C166.469 127.347 167.095 126.388 167.827 125.534C168.568 124.668 169.479 123.839 170.422 123.089C172.305 121.59 174.413 120.329 175.807 119.648C176.392 119.362 177.097 119.607 177.382 120.195Z" fill="black"/>
<path fill-rule="evenodd" clip-rule="evenodd" d="M182.309 125.575C182.594 126.163 182.351 126.872 181.765 127.158C180.504 127.774 179.101 128.614 177.927 129.644C176.745 130.68 175.873 131.839 175.53 133.083C175.355 133.713 174.706 134.081 174.079 133.906C173.452 133.731 173.084 133.079 173.259 132.449C173.772 130.593 175.007 129.062 176.378 127.86C177.756 126.651 179.353 125.704 180.734 125.029C181.32 124.743 182.025 124.988 182.309 125.575Z" fill="black"/>
<path fill-rule="evenodd" clip-rule="evenodd" d="M151.197 132.589C159.72 140.979 178.96 152.575 202.888 141.59C208.959 138.936 223.254 130.077 225.384 114.686C225.685 112.508 225.741 110.682 225.6 109.165C226.646 111.036 227.081 114.041 226.455 118.56C224.325 133.951 210.03 142.81 203.96 145.465C178.079 157.346 157.683 142.81 150.399 134.488L151.197 132.589Z" fill="#8DC0E7"/>
<path fill-rule="evenodd" clip-rule="evenodd" d="M227.834 108.862C228.784 111.039 229.056 114.129 228.479 118.293C227.367 126.328 223.084 132.618 218.361 137.209C213.648 141.791 208.437 144.741 205.297 146.115C178.739 158.301 156.96 142.701 149.514 134.193C149.084 133.702 149.132 132.954 149.621 132.522C150.109 132.091 150.854 132.139 151.284 132.63C158.405 140.766 179.128 155.526 204.327 143.958L204.336 143.953L204.346 143.949C207.277 142.667 212.243 139.861 216.722 135.507C221.198 131.157 225.127 125.322 226.145 117.967C226.693 114.005 226.376 111.418 225.676 109.812C225.006 108.277 223.974 107.596 222.81 107.39C221.572 107.171 220.063 107.475 218.554 108.196C217.057 108.912 215.676 109.987 214.72 111.139C213.588 112.504 212.547 113.965 211.494 115.467C211.38 115.629 211.266 115.793 211.151 115.957C210.218 117.291 209.265 118.652 208.252 119.948C205.967 122.868 203.289 125.565 199.492 127.183C195.927 128.703 191.577 130.348 187.073 129.671C182.464 128.977 177.981 125.914 174.006 118.703C171.304 113.802 168.63 111.538 166.317 110.459C164.065 109.41 162.024 109.411 160.228 109.412C160.165 109.412 160.102 109.412 160.04 109.412C159.389 109.412 158.861 108.883 158.861 108.229C158.861 107.575 159.389 107.045 160.04 107.045C160.121 107.045 160.205 107.045 160.289 107.045C162.077 107.042 164.575 107.038 167.309 108.312C170.189 109.655 173.193 112.341 176.068 117.556C179.805 124.336 183.748 126.777 187.422 127.329C191.202 127.897 194.993 126.529 198.572 125.004C201.845 123.608 204.226 121.262 206.399 118.485C207.371 117.242 208.286 115.935 209.224 114.594C209.338 114.431 209.453 114.268 209.568 114.104C210.62 112.602 211.709 111.07 212.909 109.623C214.096 108.193 215.755 106.913 217.541 106.059C219.317 105.21 221.336 104.726 223.218 105.058C225.174 105.404 226.854 106.614 227.834 108.862Z" fill="black"/>
<path fill-rule="evenodd" clip-rule="evenodd" d="M161.712 177.907C225.314 177.907 250.268 157.183 250.268 113.86C250.268 106.483 249.235 99.593 247.261 93.2388C252.211 80.2256 253.858 65.869 249.137 56.5959C242.514 43.5886 222.33 46.3188 205.582 51.4465C193.008 46.598 178.201 44.0273 161.712 44.0273C142.751 44.0273 125.586 47.4265 111.36 53.7799C93.7879 47.5832 69.2355 42.3354 61.7962 56.9474C55.3744 69.56 60.7337 91.5773 70.1629 106.827C69.9287 109.119 69.8097 111.464 69.8097 113.86C69.8097 157.183 98.1109 177.907 161.712 177.907ZM160.887 157.175C199.762 157.175 215.014 143.359 215.014 114.477C215.014 85.5952 193.252 67.9218 160.887 67.9218C128.523 67.9218 104.715 85.5952 104.715 114.477C104.715 143.359 122.013 157.175 160.887 157.175Z" fill="white"/>
<mask id="mask1_150_2614" style="mask-type:luminance" maskUnits="userSpaceOnUse" x="56" y="41" width="199" height="140">
<path d="M254.805 41.2353H56.1968V180.833H254.805V41.2353Z" fill="white"/>
<path fill-rule="evenodd" clip-rule="evenodd" d="M250.268 113.86C250.268 157.183 225.314 177.907 161.712 177.907C98.1109 177.907 69.8097 157.183 69.8097 113.86C69.8097 111.464 69.9287 109.119 70.1629 106.827C60.7337 91.5772 55.3744 69.5599 61.7962 56.9473C69.2355 42.3353 93.7879 47.5831 111.36 53.7798C125.586 47.4264 142.751 44.0272 161.712 44.0272C178.201 44.0272 193.008 46.5979 205.582 51.4465C222.33 46.3187 242.514 43.5885 249.137 56.5959C253.858 65.869 252.211 80.2255 247.261 93.2388C249.235 99.5929 250.268 106.483 250.268 113.86Z" fill="black"/>
</mask>
<g mask="url(#mask1_150_2614)">
<path d="M70.1628 106.827L72.9409 107.111L73.0372 106.167L72.5381 105.359L70.1628 106.827ZM111.36 53.7799L110.432 56.4127L111.482 56.7833L112.499 56.3289L111.36 53.7799ZM205.581 51.4465L204.577 54.0514L205.477 54.3983L206.399 54.1159L205.581 51.4465ZM247.261 93.2388L244.65 92.2463L244.308 93.1466L244.594 94.0669L247.261 93.2388ZM161.712 180.699C193.702 180.699 216.59 175.51 231.512 164.367C246.627 153.078 253.06 136.084 253.06 113.86H247.475C247.475 134.96 241.431 149.989 228.169 159.893C214.714 169.942 193.324 175.115 161.712 175.115V180.699ZM67.0172 113.86C67.0172 136.199 74.3636 153.172 90.3008 164.411C106.032 175.505 129.711 180.699 161.712 180.699V175.115C130.112 175.115 107.84 169.947 93.5198 159.848C79.406 149.895 72.602 134.844 72.602 113.86H67.0172ZM67.3851 106.543C67.1411 108.932 67.0172 111.371 67.0172 113.86H72.602C72.602 111.556 72.7165 109.306 72.9409 107.111L67.3851 106.543ZM59.3074 55.6808C55.6909 62.7839 55.5258 72.1669 57.2927 81.4219C59.0739 90.7533 62.8991 100.389 67.7875 108.295L72.5381 105.359C67.9977 98.0155 64.4283 89.0177 62.7783 80.3749C61.1137 71.6553 61.4795 63.7234 64.2845 58.2138L59.3074 55.6808ZM112.289 51.1467C103.41 48.0159 92.5553 45.0418 82.8567 44.7695C73.2575 44.5001 63.7819 46.8928 59.3074 55.6808L64.2845 58.2138C67.2497 52.3898 73.7702 50.1004 82.7 50.351C91.5305 50.5988 101.738 53.3471 110.432 56.4127L112.289 51.1467ZM161.712 41.2353C142.429 41.2353 124.864 44.691 110.221 51.2305L112.499 56.3289C126.307 50.1618 143.074 46.8192 161.712 46.8192V41.2353ZM206.586 48.8416C193.64 43.8492 178.484 41.2353 161.712 41.2353V46.8192C177.918 46.8192 192.376 49.3466 204.577 54.0514L206.586 48.8416ZM251.625 55.3294C247.647 47.5158 239.681 44.75 231.262 44.4303C222.831 44.1103 213.247 46.1798 204.764 48.7767L206.399 54.1159C214.665 51.5854 223.547 49.7256 231.05 50.0104C238.566 50.2955 244.004 52.6687 246.648 57.8624L251.625 55.3294ZM249.87 94.2313C252.424 87.5177 254.148 80.4042 254.611 73.707C255.072 67.0409 254.295 60.5744 251.625 55.3294L246.648 57.8624C248.699 61.8901 249.46 67.2388 249.04 73.3224C248.622 79.3747 247.047 85.9462 244.65 92.2463L249.87 94.2313ZM253.06 113.86C253.06 106.22 251.991 99.0499 249.927 92.4103L244.594 94.0669C246.48 100.136 247.475 106.745 247.475 113.86H253.06Z" fill="black"/>
</g>
<path fill-rule="evenodd" clip-rule="evenodd" d="M157.394 157.48C193.439 156.582 207.684 142.741 207.684 114.829C207.684 87.1024 187.629 69.7058 157.392 68.3577C158.659 68.3015 159.941 68.2732 161.236 68.2732C193.601 68.2732 215.363 85.9466 215.363 114.829C215.363 143.711 200.111 157.527 161.236 157.527C159.931 157.527 158.65 157.511 157.394 157.48Z" fill="#DFEFFE"/>
<path fill-rule="evenodd" clip-rule="evenodd" d="M118.916 78.1917C129.517 69.6785 144.223 65.1298 160.887 65.1298C177.556 65.1298 191.782 69.6819 201.891 78.2376C212.052 86.8367 217.806 99.2791 217.806 114.477C217.806 129.399 213.85 141.036 204.292 148.822C194.873 156.495 180.548 159.967 160.887 159.967C141.216 159.967 126.427 156.49 116.52 148.87L117.372 147.763L116.52 148.87C106.455 141.127 101.922 129.505 101.922 114.477C101.922 99.1923 108.256 86.752 118.916 78.1917L118.916 78.1917ZM160.887 67.9218C144.705 67.9218 130.662 72.3401 120.664 80.3685C110.667 88.3973 104.715 100.036 104.715 114.477C104.715 128.918 109.04 139.593 118.223 146.657C127.407 153.721 141.45 157.175 160.887 157.175C180.325 157.175 193.856 153.721 202.529 146.657C211.201 139.593 215.014 128.919 215.014 114.477C215.014 100.036 209.573 88.397 200.087 80.3686C190.601 72.3402 177.07 67.9218 160.887 67.9218Z" fill="black"/>
<path d="M191.624 95.1111C194.463 93.4744 195.008 89.1015 192.841 85.344C190.675 81.5865 186.616 79.8672 183.777 81.5039C180.938 83.1406 180.393 87.5134 182.56 91.2709C184.727 95.0285 188.785 96.7478 191.624 95.1111Z" fill="#FAF8FF"/>
</g>
<defs>
<clipPath id="clip0_150_2614">
<rect width="254.805" height="260" fill="white"/>
</clipPath>
</defs>
</svg>
