<svg width="270" height="270" viewBox="0 0 270 270" fill="none" xmlns="http://www.w3.org/2000/svg">
  <g clip-path="url(#clip0_151_5139)">
    <path
      d="M192.123 50.8102H211V112.227C211 133.949 194.062 143.129 176.865 143.129C163.418 143.129 152.169 138.086 146.222 127.484L163 119C165.457 123.525 168.978 126.062 177.512 126.062C186.563 126.062 192.123 121.407 192.123 112.227V106.279C187.856 111.58 181.649 114.683 173.245 114.683C154.885 114.683 141.438 99.6848 141.438 81.8417C141.438 63.9986 154.885 49 173.245 49C181.649 49 187.856 52.1032 192.123 57.4044V50.8102ZM176.478 96.8403C185.658 96.8403 192.123 90.7633 192.123 81.8417C192.123 72.9201 185.658 66.8431 176.478 66.8431C167.297 66.8431 160.832 72.9201 160.832 81.8417C160.832 90.7633 167.297 96.8403 176.478 96.8403Z"
      fill="black" />
    <path
      d="M102.772 49C119.71 49 133.674 63.8693 133.674 83.1347C133.674 102.4 119.71 117.269 102.772 117.269C94.1086 117.269 87.773 114.296 83.5062 109.382V141.319H64.1115V50.8102H83.5062V56.8872C87.773 51.9738 94.1086 49 102.772 49ZM98.8926 98.9091C107.814 98.9091 114.279 92.832 114.279 83.1347C114.279 73.4373 107.814 67.3603 98.8926 67.3603C89.9711 67.3603 83.5062 73.4373 83.5062 83.1347C83.5062 92.832 89.9711 98.9091 98.8926 98.9091Z"
      fill="black" />
    <path
      d="M213 221H188.985L176 202.52L163.015 221H139L163.992 185.44L139.838 151H163.853L176 168.36L188.147 151H212.162L188.008 185.44L202.317 205.8L213 221Z"
      fill="black" />
    <path d="M80.1226 137.7L85.4696 149.6L63.1907 156.4L80.1226 137.7Z" fill="black" />
    <path d="M80.1226 137.7H129.136V156.4L64.1 156V135.5L80.1226 137.7Z" fill="black" />
    <path d="M133.592 199.75L116.66 218.45L110.422 207.4L133.592 199.75Z" fill="black" />
    <path d="M163 119L75.6667 218.45L32 238L119.333 137.7L163 119Z" fill="black" />
    <path d="M133.592 199.75L119.333 207.4L116.66 218.45H67.6464V199.75H133.592Z" fill="black" />
    <rect width="270" height="20" fill="black" />
    <rect y="250" width="270" height="20" fill="black" />
    <rect width="20" height="260" fill="black" />
    <rect x="250" width="20" height="260" fill="black" />
  </g>
  <defs>
    <clipPath id="clip0_151_5139">
      <rect width="270" height="270" fill="white" />
    </clipPath>
  </defs>
</svg>